<svg width="585" height="427" viewBox="0 0 585 427" fill="none" xmlns="http://www.w3.org/2000/svg">
<g filter="url(#filter0_dddddd)">
<path d="M107.103 21.8087H119.112V53H129.795V21.8087H141.804V13.0751H107.103V21.8087ZM145.883 53H156.722V37.4043H171.07V53H181.909V13.0751H171.07V28.6708H156.722V13.0751H145.883V53ZM187.055 53H215.752V44.2664H197.894V37.4043H214.348V28.6708H197.894V21.8087H215.829V13.0751H187.055V53ZM232.142 53H250.934C259.609 53 264.97 48.2628 264.97 41.6931C264.97 36.0592 260.818 32.3747 255.691 32.1798V31.7899C260.311 30.8736 263.411 27.4621 263.411 23.0563C263.411 16.974 258.576 13.0751 249.453 13.0751H232.142V53ZM242.981 44.3444V35.9227H248.205C251.5 35.9227 253.508 37.4823 253.508 40.2895C253.508 42.9603 251.695 44.3444 248.049 44.3444H242.981ZM242.981 29.2166V21.5747H247.581C250.272 21.5747 252.26 22.9394 252.26 25.3957C252.26 27.852 250.272 29.2166 247.425 29.2166H242.981ZM307.488 33.0375C307.488 19.7033 298.911 12.5292 288.072 12.5292C277.155 12.5292 268.655 19.7033 268.655 33.0375C268.655 46.2939 277.155 53.5458 288.072 53.5458C298.911 53.5458 307.488 46.3718 307.488 33.0375ZM296.337 33.0375C296.337 40.2116 293.452 44.1105 288.072 44.1105C282.691 44.1105 279.806 40.2116 279.806 33.0375C279.806 25.8635 282.691 21.9646 288.072 21.9646C293.452 21.9646 296.337 25.8635 296.337 33.0375ZM351.18 33.0375C351.18 19.7033 342.603 12.5292 331.764 12.5292C320.847 12.5292 312.347 19.7033 312.347 33.0375C312.347 46.2939 320.847 53.5458 331.764 53.5458C342.603 53.5458 351.18 46.3718 351.18 33.0375ZM340.029 33.0375C340.029 40.2116 337.144 44.1105 331.764 44.1105C326.383 44.1105 323.498 40.2116 323.498 33.0375C323.498 25.8635 326.383 21.9646 331.764 21.9646C337.144 21.9646 340.029 25.8635 340.029 33.0375ZM356.195 53H367.034V42.7069L370.621 38.0282L379.589 53H392.533L378.731 30.8542L392.221 13.0751H379.589L367.58 29.2166H367.034V13.0751H356.195V53ZM445.052 33.0375C445.052 19.7033 436.474 12.5292 425.635 12.5292C414.718 12.5292 406.218 19.7033 406.218 33.0375C406.218 46.2939 414.718 53.5458 425.635 53.5458C436.474 53.5458 445.052 46.3718 445.052 33.0375ZM433.901 33.0375C433.901 40.2116 431.016 44.1105 425.635 44.1105C420.255 44.1105 417.369 40.2116 417.369 33.0375C417.369 25.8635 420.255 21.9646 425.635 21.9646C431.016 21.9646 433.901 25.8635 433.901 33.0375ZM450.067 53H460.906V37.4043H476.423V28.6708H460.906V21.8087H478.139V13.0751H450.067V53Z" fill="white"/>
</g>
<g filter="url(#filter1_dddddd)">
<path d="M80.559 183.821H109.741V141.832H148.37V183.821H177.552V76.3305H148.37V118.319H109.741V76.3305H80.559V183.821ZM219.33 183.821L225.524 163.246H261.004L267.197 183.821H298.688L263.208 76.3305H223.319L187.839 183.821H219.33ZM232.137 141.412L242.844 105.932H243.684L254.391 141.412H232.137ZM402.045 76.3305H372.863V132.595H372.024L333.814 76.3305H309.041V183.821H338.223V127.346H338.853L377.692 183.821H402.045V76.3305ZM416.269 183.821H504.024V160.307H453.428L504.234 92.496V76.3305H416.479V99.844H467.075L416.269 167.655V183.821Z" fill="#FFF8B9"/>
</g>
<g filter="url(#filter2_dddddd)">
<path d="M110.844 218.425H105.356V216.571C105.356 214.7 106.111 213.602 108.361 213.602C109.278 213.602 110.214 213.8 110.826 213.998L112.176 208.24C111.222 207.952 109.116 207.484 106.759 207.484C101.559 207.484 97.6896 210.417 97.6896 216.427V218.425H93.7847V224.183H97.6896V246.065H105.356V224.183H110.844V218.425ZM127.026 246.605C135.412 246.605 140.63 240.865 140.63 232.353C140.63 223.787 135.412 218.065 127.026 218.065C118.64 218.065 113.422 223.787 113.422 232.353C113.422 240.865 118.64 246.605 127.026 246.605ZM127.062 240.667C123.193 240.667 121.214 237.122 121.214 232.299C121.214 227.476 123.193 223.913 127.062 223.913C130.859 223.913 132.838 227.476 132.838 232.299C132.838 237.122 130.859 240.667 127.062 240.667ZM145.615 246.065H153.281V230.428C153.281 227.027 155.764 224.687 159.147 224.687C160.209 224.687 161.666 224.867 162.386 225.101V218.299C161.702 218.137 160.749 218.029 159.975 218.029C156.88 218.029 154.342 219.829 153.335 223.248H153.047V218.425H145.615V246.065ZM192.78 218.425H187.579V211.803H179.913V218.425H176.134V224.183H179.913V238.579C179.877 243.996 183.566 246.677 189.127 246.443C191.106 246.371 192.51 245.975 193.284 245.723L192.078 240.019C191.7 240.091 190.89 240.271 190.17 240.271C188.641 240.271 187.579 239.695 187.579 237.572V224.183H192.78V218.425ZM206.033 230.086C206.051 226.523 208.228 224.435 211.36 224.435C214.473 224.435 216.308 226.433 216.29 229.834V246.065H223.956V228.466C223.974 221.988 220.159 218.065 214.401 218.065C210.208 218.065 207.401 220.044 206.141 223.302H205.817V209.211H198.367V246.065H206.033V230.086ZM242.585 246.605C249.423 246.605 254.03 243.276 255.11 238.147L248.02 237.68C247.246 239.785 245.267 240.883 242.711 240.883C238.878 240.883 236.449 238.345 236.449 234.225V234.207H255.272V232.101C255.272 222.708 249.585 218.065 242.279 218.065C234.146 218.065 228.873 223.841 228.873 232.371C228.873 241.135 234.074 246.605 242.585 246.605ZM236.449 229.456C236.611 226.307 239.004 223.787 242.405 223.787C245.735 223.787 248.038 226.163 248.056 229.456H236.449ZM272.147 246.065H279.939V230.841H294.928V224.417H279.939V215.636H296.548V209.211H272.147V246.065ZM309.18 246.587C313.265 246.587 315.91 244.806 317.26 242.232H317.476V246.065H324.746V227.422C324.746 220.836 319.168 218.065 313.013 218.065C306.391 218.065 302.036 221.232 300.975 226.271L308.065 226.847C308.587 225.011 310.224 223.661 312.977 223.661C315.587 223.661 317.08 224.975 317.08 227.242V227.35C317.08 229.132 315.191 229.366 310.386 229.834C304.916 230.338 300.003 232.173 300.003 238.345C300.003 243.816 303.908 246.587 309.18 246.587ZM311.376 241.297C309.018 241.297 307.327 240.199 307.327 238.093C307.327 235.934 309.108 234.872 311.808 234.494C313.481 234.26 316.216 233.865 317.134 233.253V236.186C317.134 239.083 314.741 241.297 311.376 241.297ZM345.395 218.425H340.195V211.803H332.529V218.425H328.75V224.183H332.529V238.579C332.493 243.996 336.182 246.677 341.742 246.443C343.722 246.371 345.125 245.975 345.899 245.723L344.693 240.019C344.316 240.091 343.506 240.271 342.786 240.271C341.256 240.271 340.195 239.695 340.195 237.572V224.183H345.395V218.425ZM362.689 246.605C369.527 246.605 374.133 243.276 375.213 238.147L368.123 237.68C367.349 239.785 365.37 240.883 362.814 240.883C358.982 240.883 356.552 238.345 356.552 234.225V234.207H375.375V232.101C375.375 222.708 369.689 218.065 362.383 218.065C354.249 218.065 348.976 223.841 348.976 232.371C348.976 241.135 354.177 246.605 362.689 246.605ZM356.552 229.456C356.714 226.307 359.107 223.787 362.509 223.787C365.838 223.787 368.141 226.163 368.159 229.456H356.552ZM392.25 246.065H400.042V233.001H405.728L412.71 246.065H421.312L413.484 231.741C417.677 229.942 419.998 226.289 419.998 221.25C419.998 213.926 415.157 209.211 406.79 209.211H392.25V246.065ZM400.042 226.739V215.582H405.296C409.795 215.582 411.972 217.579 411.972 221.25C411.972 224.903 409.795 226.739 405.332 226.739H400.042ZM425.505 246.065H433.296V234.117H439.847C448.322 234.117 453.253 229.06 453.253 221.7C453.253 214.376 448.412 209.211 440.045 209.211H425.505V246.065ZM433.296 227.872V215.582H438.551C443.05 215.582 445.227 218.029 445.227 221.7C445.227 225.353 443.05 227.872 438.587 227.872H433.296ZM482.751 221.124H490.669C489.661 213.836 483.237 208.708 474.905 208.708C465.17 208.708 457.666 215.726 457.666 227.674C457.666 239.335 464.684 246.569 475.067 246.569C484.371 246.569 491.011 240.685 491.011 230.985V226.343H475.589V232.209H483.507C483.399 236.78 480.286 239.677 475.103 239.677C469.255 239.677 465.566 235.304 465.566 227.602C465.566 219.936 469.399 215.6 475.031 215.6C479.044 215.6 481.761 217.669 482.751 221.124Z" fill="white"/>
</g>
<defs>
<filter id="filter0_dddddd" x="27.1033" y="12.5293" width="531.035" height="221.017" filterUnits="userSpaceOnUse" color-interpolation-filters="sRGB">
<feFlood flood-opacity="0" result="BackgroundImageFix"/>
<feColorMatrix in="SourceAlpha" type="matrix" values="0 0 0 0 0 0 0 0 0 0 0 0 0 0 0 0 0 0 127 0"/>
<feOffset dy="2.76726"/>
<feGaussianBlur stdDeviation="1.1069"/>
<feColorMatrix type="matrix" values="0 0 0 0 0 0 0 0 0 0 0 0 0 0 0 0 0 0 0.104024 0"/>
<feBlend mode="normal" in2="BackgroundImageFix" result="effect1_dropShadow"/>
<feColorMatrix in="SourceAlpha" type="matrix" values="0 0 0 0 0 0 0 0 0 0 0 0 0 0 0 0 0 0 127 0"/>
<feOffset dy="6.6501"/>
<feGaussianBlur stdDeviation="2.66004"/>
<feColorMatrix type="matrix" values="0 0 0 0 0 0 0 0 0 0 0 0 0 0 0 0 0 0 0.14944 0"/>
<feBlend mode="normal" in2="effect1_dropShadow" result="effect2_dropShadow"/>
<feColorMatrix in="SourceAlpha" type="matrix" values="0 0 0 0 0 0 0 0 0 0 0 0 0 0 0 0 0 0 127 0"/>
<feOffset dy="12.5216"/>
<feGaussianBlur stdDeviation="5.00862"/>
<feColorMatrix type="matrix" values="0 0 0 0 0 0 0 0 0 0 0 0 0 0 0 0 0 0 0.185 0"/>
<feBlend mode="normal" in2="effect2_dropShadow" result="effect3_dropShadow"/>
<feColorMatrix in="SourceAlpha" type="matrix" values="0 0 0 0 0 0 0 0 0 0 0 0 0 0 0 0 0 0 127 0"/>
<feOffset dy="22.3363"/>
<feGaussianBlur stdDeviation="8.93452"/>
<feColorMatrix type="matrix" values="0 0 0 0 0 0 0 0 0 0 0 0 0 0 0 0 0 0 0.22056 0"/>
<feBlend mode="normal" in2="effect3_dropShadow" result="effect4_dropShadow"/>
<feColorMatrix in="SourceAlpha" type="matrix" values="0 0 0 0 0 0 0 0 0 0 0 0 0 0 0 0 0 0 127 0"/>
<feOffset dy="41.7776"/>
<feGaussianBlur stdDeviation="16.711"/>
<feColorMatrix type="matrix" values="0 0 0 0 0 0 0 0 0 0 0 0 0 0 0 0 0 0 0.265976 0"/>
<feBlend mode="normal" in2="effect4_dropShadow" result="effect5_dropShadow"/>
<feColorMatrix in="SourceAlpha" type="matrix" values="0 0 0 0 0 0 0 0 0 0 0 0 0 0 0 0 0 0 127 0"/>
<feOffset dy="100"/>
<feGaussianBlur stdDeviation="40"/>
<feColorMatrix type="matrix" values="0 0 0 0 0 0 0 0 0 0 0 0 0 0 0 0 0 0 0.37 0"/>
<feBlend mode="normal" in2="effect5_dropShadow" result="effect6_dropShadow"/>
<feBlend mode="normal" in="SourceGraphic" in2="effect6_dropShadow" result="shape"/>
</filter>
<filter id="filter1_dddddd" x="0.559021" y="76.3305" width="583.675" height="287.49" filterUnits="userSpaceOnUse" color-interpolation-filters="sRGB">
<feFlood flood-opacity="0" result="BackgroundImageFix"/>
<feColorMatrix in="SourceAlpha" type="matrix" values="0 0 0 0 0 0 0 0 0 0 0 0 0 0 0 0 0 0 127 0"/>
<feOffset dy="2.76726"/>
<feGaussianBlur stdDeviation="1.1069"/>
<feColorMatrix type="matrix" values="0 0 0 0 0 0 0 0 0 0 0 0 0 0 0 0 0 0 0.104024 0"/>
<feBlend mode="normal" in2="BackgroundImageFix" result="effect1_dropShadow"/>
<feColorMatrix in="SourceAlpha" type="matrix" values="0 0 0 0 0 0 0 0 0 0 0 0 0 0 0 0 0 0 127 0"/>
<feOffset dy="6.6501"/>
<feGaussianBlur stdDeviation="2.66004"/>
<feColorMatrix type="matrix" values="0 0 0 0 0 0 0 0 0 0 0 0 0 0 0 0 0 0 0.14944 0"/>
<feBlend mode="normal" in2="effect1_dropShadow" result="effect2_dropShadow"/>
<feColorMatrix in="SourceAlpha" type="matrix" values="0 0 0 0 0 0 0 0 0 0 0 0 0 0 0 0 0 0 127 0"/>
<feOffset dy="12.5216"/>
<feGaussianBlur stdDeviation="5.00862"/>
<feColorMatrix type="matrix" values="0 0 0 0 0 0 0 0 0 0 0 0 0 0 0 0 0 0 0.185 0"/>
<feBlend mode="normal" in2="effect2_dropShadow" result="effect3_dropShadow"/>
<feColorMatrix in="SourceAlpha" type="matrix" values="0 0 0 0 0 0 0 0 0 0 0 0 0 0 0 0 0 0 127 0"/>
<feOffset dy="22.3363"/>
<feGaussianBlur stdDeviation="8.93452"/>
<feColorMatrix type="matrix" values="0 0 0 0 0 0 0 0 0 0 0 0 0 0 0 0 0 0 0.22056 0"/>
<feBlend mode="normal" in2="effect3_dropShadow" result="effect4_dropShadow"/>
<feColorMatrix in="SourceAlpha" type="matrix" values="0 0 0 0 0 0 0 0 0 0 0 0 0 0 0 0 0 0 127 0"/>
<feOffset dy="41.7776"/>
<feGaussianBlur stdDeviation="16.711"/>
<feColorMatrix type="matrix" values="0 0 0 0 0 0 0 0 0 0 0 0 0 0 0 0 0 0 0.265976 0"/>
<feBlend mode="normal" in2="effect4_dropShadow" result="effect5_dropShadow"/>
<feColorMatrix in="SourceAlpha" type="matrix" values="0 0 0 0 0 0 0 0 0 0 0 0 0 0 0 0 0 0 127 0"/>
<feOffset dy="100"/>
<feGaussianBlur stdDeviation="40"/>
<feColorMatrix type="matrix" values="0 0 0 0 0 0 0 0 0 0 0 0 0 0 0 0 0 0 0.37 0"/>
<feBlend mode="normal" in2="effect5_dropShadow" result="effect6_dropShadow"/>
<feBlend mode="normal" in="SourceGraphic" in2="effect6_dropShadow" result="shape"/>
</filter>
<filter id="filter2_dddddd" x="13.7847" y="207.484" width="557.226" height="219.121" filterUnits="userSpaceOnUse" color-interpolation-filters="sRGB">
<feFlood flood-opacity="0" result="BackgroundImageFix"/>
<feColorMatrix in="SourceAlpha" type="matrix" values="0 0 0 0 0 0 0 0 0 0 0 0 0 0 0 0 0 0 127 0"/>
<feOffset dy="2.76726"/>
<feGaussianBlur stdDeviation="1.1069"/>
<feColorMatrix type="matrix" values="0 0 0 0 0 0 0 0 0 0 0 0 0 0 0 0 0 0 0.104024 0"/>
<feBlend mode="normal" in2="BackgroundImageFix" result="effect1_dropShadow"/>
<feColorMatrix in="SourceAlpha" type="matrix" values="0 0 0 0 0 0 0 0 0 0 0 0 0 0 0 0 0 0 127 0"/>
<feOffset dy="6.6501"/>
<feGaussianBlur stdDeviation="2.66004"/>
<feColorMatrix type="matrix" values="0 0 0 0 0 0 0 0 0 0 0 0 0 0 0 0 0 0 0.14944 0"/>
<feBlend mode="normal" in2="effect1_dropShadow" result="effect2_dropShadow"/>
<feColorMatrix in="SourceAlpha" type="matrix" values="0 0 0 0 0 0 0 0 0 0 0 0 0 0 0 0 0 0 127 0"/>
<feOffset dy="12.5216"/>
<feGaussianBlur stdDeviation="5.00862"/>
<feColorMatrix type="matrix" values="0 0 0 0 0 0 0 0 0 0 0 0 0 0 0 0 0 0 0.185 0"/>
<feBlend mode="normal" in2="effect2_dropShadow" result="effect3_dropShadow"/>
<feColorMatrix in="SourceAlpha" type="matrix" values="0 0 0 0 0 0 0 0 0 0 0 0 0 0 0 0 0 0 127 0"/>
<feOffset dy="22.3363"/>
<feGaussianBlur stdDeviation="8.93452"/>
<feColorMatrix type="matrix" values="0 0 0 0 0 0 0 0 0 0 0 0 0 0 0 0 0 0 0.22056 0"/>
<feBlend mode="normal" in2="effect3_dropShadow" result="effect4_dropShadow"/>
<feColorMatrix in="SourceAlpha" type="matrix" values="0 0 0 0 0 0 0 0 0 0 0 0 0 0 0 0 0 0 127 0"/>
<feOffset dy="41.7776"/>
<feGaussianBlur stdDeviation="16.711"/>
<feColorMatrix type="matrix" values="0 0 0 0 0 0 0 0 0 0 0 0 0 0 0 0 0 0 0.265976 0"/>
<feBlend mode="normal" in2="effect4_dropShadow" result="effect5_dropShadow"/>
<feColorMatrix in="SourceAlpha" type="matrix" values="0 0 0 0 0 0 0 0 0 0 0 0 0 0 0 0 0 0 127 0"/>
<feOffset dy="100"/>
<feGaussianBlur stdDeviation="40"/>
<feColorMatrix type="matrix" values="0 0 0 0 0 0 0 0 0 0 0 0 0 0 0 0 0 0 0.37 0"/>
<feBlend mode="normal" in2="effect5_dropShadow" result="effect6_dropShadow"/>
<feBlend mode="normal" in="SourceGraphic" in2="effect6_dropShadow" result="shape"/>
</filter>
</defs>
</svg>
