<svg width="341" height="137" viewBox="0 0 341 137" fill="none" xmlns="http://www.w3.org/2000/svg">
<g filter="url(#filter0_d)">
<path d="M69.6312 11.9598H76.1917V29H82.0279V11.9598H88.5884V7.18859H69.6312V11.9598ZM90.8169 29H96.7384V20.4799H104.577V29H110.498V7.18859H104.577V15.7087H96.7384V7.18859H90.8169V29ZM113.31 29H128.987V24.2288H119.231V20.4799H128.22V15.7087H119.231V11.9598H129.03V7.18859H113.31V29ZM137.941 29H148.208C152.947 29 155.876 26.412 155.876 22.8229C155.876 19.7451 153.607 17.7322 150.806 17.6257V17.4127C153.33 16.9121 155.024 15.0484 155.024 12.6414C155.024 9.31861 152.383 7.18859 147.398 7.18859H137.941V29ZM143.862 24.2714V19.6705H146.717C148.517 19.6705 149.613 20.5225 149.613 22.0561C149.613 23.5152 148.623 24.2714 146.631 24.2714H143.862ZM143.862 16.0069V11.832H146.376C147.846 11.832 148.932 12.5775 148.932 13.9195C148.932 15.2614 147.846 16.0069 146.291 16.0069H143.862ZM179.104 18.0943C179.104 10.8096 174.418 6.89038 168.496 6.89038C162.532 6.89038 157.889 10.8096 157.889 18.0943C157.889 25.3364 162.532 29.2982 168.496 29.2982C174.418 29.2982 179.104 25.379 179.104 18.0943ZM173.012 18.0943C173.012 22.0135 171.436 24.1436 168.496 24.1436C165.557 24.1436 163.98 22.0135 163.98 18.0943C163.98 14.1751 165.557 12.045 168.496 12.045C171.436 12.045 173.012 14.1751 173.012 18.0943ZM202.973 18.0943C202.973 10.8096 198.287 6.89038 192.366 6.89038C186.402 6.89038 181.758 10.8096 181.758 18.0943C181.758 25.3364 186.402 29.2982 192.366 29.2982C198.287 29.2982 202.973 25.379 202.973 18.0943ZM196.881 18.0943C196.881 22.0135 195.305 24.1436 192.366 24.1436C189.426 24.1436 187.85 22.0135 187.85 18.0943C187.85 14.1751 189.426 12.045 192.366 12.045C195.305 12.045 196.881 14.1751 196.881 18.0943ZM205.713 29H211.634V23.3767L213.594 20.8207L218.493 29H225.565L218.024 16.9015L225.394 7.18859H218.493L211.933 16.0069H211.634V7.18859H205.713V29ZM254.256 18.0943C254.256 10.8096 249.57 6.89038 243.649 6.89038C237.685 6.89038 233.041 10.8096 233.041 18.0943C233.041 25.3364 237.685 29.2982 243.649 29.2982C249.57 29.2982 254.256 25.379 254.256 18.0943ZM248.164 18.0943C248.164 22.0135 246.588 24.1436 243.649 24.1436C240.709 24.1436 239.133 22.0135 239.133 18.0943C239.133 14.1751 240.709 12.045 243.649 12.045C246.588 12.045 248.164 14.1751 248.164 18.0943ZM256.996 29H262.917V20.4799H271.395V15.7087H262.917V11.9598H272.332V7.18859H256.996V29Z" fill="white"/>
<path d="M55.1296 96.4766H71.072V73.5379H92.1756V96.4766H108.118V37.7536H92.1756V60.6923H71.072V37.7536H55.1296V96.4766ZM130.942 96.4766L134.325 85.2367H153.709L157.092 96.4766H174.296L154.913 37.7536H133.121L113.738 96.4766H130.942ZM137.938 73.3085L143.788 53.9254H144.246L150.096 73.3085H137.938ZM230.761 37.7536H214.819V68.4914H214.36L193.486 37.7536H179.952V96.4766H195.894V65.6241H196.238L217.457 96.4766H230.761V37.7536ZM238.532 96.4766H286.473V83.631H258.832L286.588 46.585V37.7536H238.646V50.5992H266.287L238.532 87.6452V96.4766Z" fill="#FFF8B9"/>
<path d="M98.8984 111.561H96.7683V110.841C96.7683 110.115 97.0616 109.689 97.9346 109.689C98.2908 109.689 98.654 109.766 98.8914 109.843L99.4152 107.608C99.0451 107.496 98.2279 107.314 97.313 107.314C95.2946 107.314 93.793 108.453 93.793 110.786V111.561H92.2775V113.796H93.793V122.288H96.7683V113.796H98.8984V111.561ZM105.179 122.498C108.433 122.498 110.459 120.27 110.459 116.966C110.459 113.642 108.433 111.421 105.179 111.421C101.924 111.421 99.8989 113.642 99.8989 116.966C99.8989 120.27 101.924 122.498 105.179 122.498ZM105.193 120.193C103.691 120.193 102.923 118.817 102.923 116.946C102.923 115.074 103.691 113.691 105.193 113.691C106.666 113.691 107.435 115.074 107.435 116.946C107.435 118.817 106.666 120.193 105.193 120.193ZM112.393 122.288H115.369V116.219C115.369 114.899 116.332 113.991 117.645 113.991C118.058 113.991 118.623 114.061 118.903 114.152V111.512C118.637 111.449 118.267 111.407 117.967 111.407C116.765 111.407 115.781 112.106 115.39 113.433H115.278V111.561H112.393V122.288ZM130.699 111.561H128.68V108.991H125.705V111.561H124.238V113.796H125.705V119.383C125.691 121.485 127.123 122.526 129.281 122.435C130.049 122.407 130.594 122.253 130.894 122.156L130.426 119.942C130.28 119.97 129.965 120.039 129.686 120.039C129.092 120.039 128.68 119.816 128.68 118.992V113.796H130.699V111.561ZM135.842 116.086C135.849 114.704 136.695 113.893 137.91 113.893C139.118 113.893 139.83 114.669 139.823 115.989V122.288H142.799V115.458C142.806 112.944 141.325 111.421 139.09 111.421C137.463 111.421 136.373 112.189 135.884 113.453H135.759V107.985H132.867V122.288H135.842V116.086ZM150.029 122.498C152.683 122.498 154.471 121.206 154.89 119.215L152.138 119.034C151.838 119.851 151.07 120.277 150.078 120.277C148.59 120.277 147.647 119.292 147.647 117.693V117.686H154.953V116.869C154.953 113.223 152.746 111.421 149.91 111.421C146.753 111.421 144.707 113.663 144.707 116.973C144.707 120.375 146.725 122.498 150.029 122.498ZM147.647 115.842C147.71 114.62 148.639 113.642 149.959 113.642C151.251 113.642 152.145 114.564 152.152 115.842H147.647ZM161.502 122.288H164.526V116.38H170.344V113.886H164.526V110.478H170.972V107.985H161.502V122.288ZM175.875 122.491C177.461 122.491 178.487 121.799 179.011 120.801H179.095V122.288H181.917V115.053C181.917 112.497 179.751 111.421 177.363 111.421C174.793 111.421 173.103 112.65 172.691 114.606L175.442 114.829C175.645 114.117 176.28 113.593 177.349 113.593C178.362 113.593 178.941 114.103 178.941 114.983V115.025C178.941 115.716 178.208 115.807 176.343 115.989C174.22 116.184 172.313 116.897 172.313 119.292C172.313 121.415 173.829 122.491 175.875 122.491ZM176.727 120.438C175.812 120.438 175.156 120.012 175.156 119.194C175.156 118.356 175.847 117.944 176.895 117.798C177.544 117.707 178.606 117.553 178.962 117.316V118.454C178.962 119.579 178.033 120.438 176.727 120.438ZM189.931 111.561H187.912V108.991H184.937V111.561H183.47V113.796H184.937V119.383C184.923 121.485 186.355 122.526 188.513 122.435C189.281 122.407 189.826 122.253 190.126 122.156L189.658 119.942C189.512 119.97 189.197 120.039 188.918 120.039C188.324 120.039 187.912 119.816 187.912 118.992V113.796H189.931V111.561ZM196.642 122.498C199.296 122.498 201.084 121.206 201.503 119.215L198.752 119.034C198.451 119.851 197.683 120.277 196.691 120.277C195.204 120.277 194.261 119.292 194.261 117.693V117.686H201.566V116.869C201.566 113.223 199.359 111.421 196.524 111.421C193.367 111.421 191.321 113.663 191.321 116.973C191.321 120.375 193.339 122.498 196.642 122.498ZM194.261 115.842C194.324 114.62 195.253 113.642 196.573 113.642C197.865 113.642 198.759 114.564 198.766 115.842H194.261ZM208.116 122.288H211.14V117.218H213.347L216.056 122.288H219.395L216.357 116.729C217.984 116.031 218.885 114.613 218.885 112.657C218.885 109.815 217.006 107.985 213.759 107.985H208.116V122.288ZM211.14 114.787V110.457H213.179C214.925 110.457 215.77 111.233 215.77 112.657C215.77 114.075 214.925 114.787 213.193 114.787H211.14ZM221.022 122.288H224.046V117.651H226.589C229.878 117.651 231.792 115.688 231.792 112.832C231.792 109.989 229.913 107.985 226.665 107.985H221.022V122.288ZM224.046 115.227V110.457H226.086C227.832 110.457 228.677 111.407 228.677 112.832C228.677 114.25 227.832 115.227 226.1 115.227H224.046ZM243.24 112.608H246.313C245.922 109.78 243.429 107.789 240.195 107.789C236.417 107.789 233.504 110.513 233.504 115.151C233.504 119.676 236.228 122.484 240.258 122.484C243.869 122.484 246.446 120.2 246.446 116.436V114.634H240.461V116.911H243.534C243.492 118.685 242.283 119.809 240.272 119.809C238.002 119.809 236.571 118.112 236.571 115.123C236.571 112.147 238.058 110.464 240.244 110.464C241.802 110.464 242.856 111.267 243.24 112.608Z" fill="white"/>
</g>
<defs>
<filter id="filter0_d" x="-4" y="0" width="349" height="145" filterUnits="userSpaceOnUse" color-interpolation-filters="sRGB">
<feFlood flood-opacity="0" result="BackgroundImageFix"/>
<feColorMatrix in="SourceAlpha" type="matrix" values="0 0 0 0 0 0 0 0 0 0 0 0 0 0 0 0 0 0 127 0"/>
<feOffset dy="4"/>
<feGaussianBlur stdDeviation="2"/>
<feColorMatrix type="matrix" values="0 0 0 0 0 0 0 0 0 0 0 0 0 0 0 0 0 0 0.25 0"/>
<feBlend mode="normal" in2="BackgroundImageFix" result="effect1_dropShadow"/>
<feBlend mode="normal" in="SourceGraphic" in2="effect1_dropShadow" result="shape"/>
</filter>
</defs>
</svg>
